<mxfile host="app.diagrams.net" agent="Mozilla/5.0 (Windows NT 6.1; Win64; x64; rv:109.0) Gecko/20100101 Firefox/115.0" version="24.7.6">
  <diagram name="Page-1" id="t1flrEwkcPRoly9GRwMT">
    <mxGraphModel dx="612" dy="427" grid="1" gridSize="10" guides="1" tooltips="1" connect="1" arrows="1" fold="1" page="1" pageScale="1" pageWidth="850" pageHeight="1100" math="0" shadow="0">
      <root>
        <mxCell id="0" />
        <mxCell id="1" parent="0" />
        <mxCell id="kGsR6LhhUxjAlJ8nYX4r-5" value="" style="endArrow=none;html=1;rounded=0;" edge="1" parent="1">
          <mxGeometry width="50" height="50" relative="1" as="geometry">
            <mxPoint x="400" y="280" as="sourcePoint" />
            <mxPoint x="440" y="280" as="targetPoint" />
          </mxGeometry>
        </mxCell>
        <mxCell id="kGsR6LhhUxjAlJ8nYX4r-6" value="" style="endArrow=none;html=1;rounded=0;" edge="1" parent="1">
          <mxGeometry width="50" height="50" relative="1" as="geometry">
            <mxPoint x="440" y="320" as="sourcePoint" />
            <mxPoint x="480" y="320" as="targetPoint" />
          </mxGeometry>
        </mxCell>
        <mxCell id="kGsR6LhhUxjAlJ8nYX4r-7" value="" style="endArrow=none;html=1;rounded=0;" edge="1" parent="1">
          <mxGeometry width="50" height="50" relative="1" as="geometry">
            <mxPoint x="480" y="280" as="sourcePoint" />
            <mxPoint x="520" y="280" as="targetPoint" />
          </mxGeometry>
        </mxCell>
        <mxCell id="kGsR6LhhUxjAlJ8nYX4r-8" value="" style="endArrow=none;html=1;rounded=0;" edge="1" parent="1">
          <mxGeometry width="50" height="50" relative="1" as="geometry">
            <mxPoint x="520" y="320" as="sourcePoint" />
            <mxPoint x="560" y="320" as="targetPoint" />
          </mxGeometry>
        </mxCell>
        <mxCell id="kGsR6LhhUxjAlJ8nYX4r-9" value="" style="endArrow=none;html=1;rounded=0;" edge="1" parent="1">
          <mxGeometry width="50" height="50" relative="1" as="geometry">
            <mxPoint x="560" y="280" as="sourcePoint" />
            <mxPoint x="600" y="280" as="targetPoint" />
          </mxGeometry>
        </mxCell>
        <mxCell id="kGsR6LhhUxjAlJ8nYX4r-10" value="" style="endArrow=none;html=1;rounded=0;" edge="1" parent="1">
          <mxGeometry width="50" height="50" relative="1" as="geometry">
            <mxPoint x="600" y="320" as="sourcePoint" />
            <mxPoint x="640" y="320" as="targetPoint" />
          </mxGeometry>
        </mxCell>
        <mxCell id="kGsR6LhhUxjAlJ8nYX4r-11" value="" style="endArrow=none;html=1;rounded=0;" edge="1" parent="1">
          <mxGeometry width="50" height="50" relative="1" as="geometry">
            <mxPoint x="400" y="320" as="sourcePoint" />
            <mxPoint x="400" y="280" as="targetPoint" />
          </mxGeometry>
        </mxCell>
        <mxCell id="kGsR6LhhUxjAlJ8nYX4r-12" value="" style="endArrow=none;html=1;rounded=0;" edge="1" parent="1">
          <mxGeometry width="50" height="50" relative="1" as="geometry">
            <mxPoint x="360" y="320" as="sourcePoint" />
            <mxPoint x="400" y="320" as="targetPoint" />
          </mxGeometry>
        </mxCell>
        <mxCell id="kGsR6LhhUxjAlJ8nYX4r-13" value="" style="endArrow=none;html=1;rounded=0;" edge="1" parent="1">
          <mxGeometry width="50" height="50" relative="1" as="geometry">
            <mxPoint x="440" y="320" as="sourcePoint" />
            <mxPoint x="440" y="280" as="targetPoint" />
          </mxGeometry>
        </mxCell>
        <mxCell id="kGsR6LhhUxjAlJ8nYX4r-14" value="" style="endArrow=none;html=1;rounded=0;" edge="1" parent="1">
          <mxGeometry width="50" height="50" relative="1" as="geometry">
            <mxPoint x="480" y="320" as="sourcePoint" />
            <mxPoint x="480" y="280" as="targetPoint" />
          </mxGeometry>
        </mxCell>
        <mxCell id="kGsR6LhhUxjAlJ8nYX4r-15" value="" style="endArrow=none;html=1;rounded=0;" edge="1" parent="1">
          <mxGeometry width="50" height="50" relative="1" as="geometry">
            <mxPoint x="519.8" y="320" as="sourcePoint" />
            <mxPoint x="519.8" y="280" as="targetPoint" />
          </mxGeometry>
        </mxCell>
        <mxCell id="kGsR6LhhUxjAlJ8nYX4r-16" value="" style="endArrow=none;html=1;rounded=0;" edge="1" parent="1">
          <mxGeometry width="50" height="50" relative="1" as="geometry">
            <mxPoint x="560" y="320" as="sourcePoint" />
            <mxPoint x="560" y="280" as="targetPoint" />
          </mxGeometry>
        </mxCell>
        <mxCell id="kGsR6LhhUxjAlJ8nYX4r-17" value="" style="endArrow=none;html=1;rounded=0;" edge="1" parent="1">
          <mxGeometry width="50" height="50" relative="1" as="geometry">
            <mxPoint x="600" y="320" as="sourcePoint" />
            <mxPoint x="600" y="280" as="targetPoint" />
          </mxGeometry>
        </mxCell>
        <mxCell id="kGsR6LhhUxjAlJ8nYX4r-18" value="" style="endArrow=none;html=1;rounded=0;" edge="1" parent="1">
          <mxGeometry width="50" height="50" relative="1" as="geometry">
            <mxPoint x="640" y="320" as="sourcePoint" />
            <mxPoint x="640" y="280" as="targetPoint" />
          </mxGeometry>
        </mxCell>
        <mxCell id="kGsR6LhhUxjAlJ8nYX4r-19" value="" style="endArrow=none;html=1;rounded=0;" edge="1" parent="1">
          <mxGeometry width="50" height="50" relative="1" as="geometry">
            <mxPoint x="640" y="280" as="sourcePoint" />
            <mxPoint x="680" y="280" as="targetPoint" />
          </mxGeometry>
        </mxCell>
        <mxCell id="kGsR6LhhUxjAlJ8nYX4r-20" value="" style="endArrow=none;html=1;rounded=0;" edge="1" parent="1">
          <mxGeometry width="50" height="50" relative="1" as="geometry">
            <mxPoint x="360" y="400" as="sourcePoint" />
            <mxPoint x="400" y="400" as="targetPoint" />
          </mxGeometry>
        </mxCell>
        <mxCell id="kGsR6LhhUxjAlJ8nYX4r-21" value="" style="endArrow=none;html=1;rounded=0;" edge="1" parent="1">
          <mxGeometry width="50" height="50" relative="1" as="geometry">
            <mxPoint x="400" y="360" as="sourcePoint" />
            <mxPoint x="480" y="360" as="targetPoint" />
          </mxGeometry>
        </mxCell>
        <mxCell id="kGsR6LhhUxjAlJ8nYX4r-23" value="" style="endArrow=none;html=1;rounded=0;" edge="1" parent="1">
          <mxGeometry width="50" height="50" relative="1" as="geometry">
            <mxPoint x="480" y="400" as="sourcePoint" />
            <mxPoint x="560" y="400" as="targetPoint" />
          </mxGeometry>
        </mxCell>
        <mxCell id="kGsR6LhhUxjAlJ8nYX4r-24" value="" style="endArrow=none;html=1;rounded=0;" edge="1" parent="1">
          <mxGeometry width="50" height="50" relative="1" as="geometry">
            <mxPoint x="400" y="400" as="sourcePoint" />
            <mxPoint x="400" y="360" as="targetPoint" />
          </mxGeometry>
        </mxCell>
        <mxCell id="kGsR6LhhUxjAlJ8nYX4r-25" value="" style="endArrow=none;html=1;rounded=0;" edge="1" parent="1">
          <mxGeometry width="50" height="50" relative="1" as="geometry">
            <mxPoint x="480" y="400" as="sourcePoint" />
            <mxPoint x="480" y="360" as="targetPoint" />
          </mxGeometry>
        </mxCell>
        <mxCell id="kGsR6LhhUxjAlJ8nYX4r-26" value="" style="endArrow=none;html=1;rounded=0;" edge="1" parent="1">
          <mxGeometry width="50" height="50" relative="1" as="geometry">
            <mxPoint x="560" y="400" as="sourcePoint" />
            <mxPoint x="560" y="360" as="targetPoint" />
          </mxGeometry>
        </mxCell>
        <mxCell id="kGsR6LhhUxjAlJ8nYX4r-27" value="" style="endArrow=none;html=1;rounded=0;" edge="1" parent="1">
          <mxGeometry width="50" height="50" relative="1" as="geometry">
            <mxPoint x="640" y="400" as="sourcePoint" />
            <mxPoint x="640" y="360" as="targetPoint" />
          </mxGeometry>
        </mxCell>
        <mxCell id="kGsR6LhhUxjAlJ8nYX4r-28" value="" style="endArrow=none;html=1;rounded=0;" edge="1" parent="1">
          <mxGeometry width="50" height="50" relative="1" as="geometry">
            <mxPoint x="560" y="360" as="sourcePoint" />
            <mxPoint x="640" y="360" as="targetPoint" />
          </mxGeometry>
        </mxCell>
        <mxCell id="kGsR6LhhUxjAlJ8nYX4r-29" value="" style="endArrow=none;html=1;rounded=0;" edge="1" parent="1">
          <mxGeometry width="50" height="50" relative="1" as="geometry">
            <mxPoint x="640" y="400" as="sourcePoint" />
            <mxPoint x="720" y="400" as="targetPoint" />
          </mxGeometry>
        </mxCell>
        <mxCell id="kGsR6LhhUxjAlJ8nYX4r-30" value="" style="endArrow=none;html=1;rounded=0;" edge="1" parent="1">
          <mxGeometry width="50" height="50" relative="1" as="geometry">
            <mxPoint x="680" y="320" as="sourcePoint" />
            <mxPoint x="720" y="320" as="targetPoint" />
          </mxGeometry>
        </mxCell>
        <mxCell id="kGsR6LhhUxjAlJ8nYX4r-31" value="" style="endArrow=none;html=1;rounded=0;" edge="1" parent="1">
          <mxGeometry width="50" height="50" relative="1" as="geometry">
            <mxPoint x="680" y="320" as="sourcePoint" />
            <mxPoint x="680" y="280" as="targetPoint" />
          </mxGeometry>
        </mxCell>
        <mxCell id="kGsR6LhhUxjAlJ8nYX4r-32" value="&lt;b&gt;ck0 victim&lt;/b&gt;" style="text;html=1;align=center;verticalAlign=middle;whiteSpace=wrap;rounded=0;" vertex="1" parent="1">
          <mxGeometry x="310" y="280" width="60" height="30" as="geometry" />
        </mxCell>
        <mxCell id="kGsR6LhhUxjAlJ8nYX4r-33" value="ck1 aggressor" style="text;html=1;align=center;verticalAlign=middle;whiteSpace=wrap;rounded=0;" vertex="1" parent="1">
          <mxGeometry x="310" y="360" width="60" height="30" as="geometry" />
        </mxCell>
        <mxCell id="kGsR6LhhUxjAlJ8nYX4r-34" value="" style="triangle;whiteSpace=wrap;html=1;direction=north;fillColor=#67AB9F;strokeColor=#67AB9F;" vertex="1" parent="1">
          <mxGeometry x="394" y="322" width="10" height="10" as="geometry" />
        </mxCell>
        <mxCell id="kGsR6LhhUxjAlJ8nYX4r-36" value="" style="triangle;whiteSpace=wrap;html=1;direction=south;fillColor=#FF0000;strokeColor=#FF0000;" vertex="1" parent="1">
          <mxGeometry x="475" y="322" width="10" height="10" as="geometry" />
        </mxCell>
        <mxCell id="kGsR6LhhUxjAlJ8nYX4r-37" value="" style="endArrow=none;html=1;rounded=0;strokeWidth=3;strokeColor=#D5E8D4;" edge="1" parent="1">
          <mxGeometry width="50" height="50" relative="1" as="geometry">
            <mxPoint x="434" y="326.83" as="sourcePoint" />
            <mxPoint x="444" y="326.83" as="targetPoint" />
          </mxGeometry>
        </mxCell>
        <mxCell id="kGsR6LhhUxjAlJ8nYX4r-39" value="" style="triangle;whiteSpace=wrap;html=1;direction=north;fillColor=#67AB9F;strokeColor=#67AB9F;" vertex="1" parent="1">
          <mxGeometry x="555" y="322" width="10" height="10" as="geometry" />
        </mxCell>
        <mxCell id="kGsR6LhhUxjAlJ8nYX4r-40" value="" style="triangle;whiteSpace=wrap;html=1;direction=south;fillColor=#FF0000;strokeColor=#FF0000;" vertex="1" parent="1">
          <mxGeometry x="635" y="322" width="10" height="10" as="geometry" />
        </mxCell>
        <mxCell id="kGsR6LhhUxjAlJ8nYX4r-41" value="" style="endArrow=none;html=1;rounded=0;strokeWidth=3;strokeColor=#D5E8D4;" edge="1" parent="1">
          <mxGeometry width="50" height="50" relative="1" as="geometry">
            <mxPoint x="595" y="326.83" as="sourcePoint" />
            <mxPoint x="605" y="326.83" as="targetPoint" />
          </mxGeometry>
        </mxCell>
        <mxCell id="kGsR6LhhUxjAlJ8nYX4r-42" value="" style="endArrow=none;html=1;rounded=0;strokeWidth=3;strokeColor=#D5E8D4;" edge="1" parent="1">
          <mxGeometry width="50" height="50" relative="1" as="geometry">
            <mxPoint x="514" y="327.83" as="sourcePoint" />
            <mxPoint x="524" y="327.83" as="targetPoint" />
          </mxGeometry>
        </mxCell>
        <mxCell id="kGsR6LhhUxjAlJ8nYX4r-43" value="" style="endArrow=none;html=1;rounded=0;" edge="1" parent="1">
          <mxGeometry width="50" height="50" relative="1" as="geometry">
            <mxPoint x="400" y="459" as="sourcePoint" />
            <mxPoint x="440" y="459" as="targetPoint" />
          </mxGeometry>
        </mxCell>
        <mxCell id="kGsR6LhhUxjAlJ8nYX4r-44" value="" style="endArrow=none;html=1;rounded=0;" edge="1" parent="1">
          <mxGeometry width="50" height="50" relative="1" as="geometry">
            <mxPoint x="440" y="499" as="sourcePoint" />
            <mxPoint x="480" y="499" as="targetPoint" />
          </mxGeometry>
        </mxCell>
        <mxCell id="kGsR6LhhUxjAlJ8nYX4r-45" value="" style="endArrow=none;html=1;rounded=0;" edge="1" parent="1">
          <mxGeometry width="50" height="50" relative="1" as="geometry">
            <mxPoint x="480" y="459" as="sourcePoint" />
            <mxPoint x="520" y="459" as="targetPoint" />
          </mxGeometry>
        </mxCell>
        <mxCell id="kGsR6LhhUxjAlJ8nYX4r-46" value="" style="endArrow=none;html=1;rounded=0;" edge="1" parent="1">
          <mxGeometry width="50" height="50" relative="1" as="geometry">
            <mxPoint x="520" y="499" as="sourcePoint" />
            <mxPoint x="560" y="499" as="targetPoint" />
          </mxGeometry>
        </mxCell>
        <mxCell id="kGsR6LhhUxjAlJ8nYX4r-47" value="" style="endArrow=none;html=1;rounded=0;" edge="1" parent="1">
          <mxGeometry width="50" height="50" relative="1" as="geometry">
            <mxPoint x="560" y="459" as="sourcePoint" />
            <mxPoint x="600" y="459" as="targetPoint" />
          </mxGeometry>
        </mxCell>
        <mxCell id="kGsR6LhhUxjAlJ8nYX4r-48" value="" style="endArrow=none;html=1;rounded=0;" edge="1" parent="1">
          <mxGeometry width="50" height="50" relative="1" as="geometry">
            <mxPoint x="600" y="499" as="sourcePoint" />
            <mxPoint x="640" y="499" as="targetPoint" />
          </mxGeometry>
        </mxCell>
        <mxCell id="kGsR6LhhUxjAlJ8nYX4r-49" value="" style="endArrow=none;html=1;rounded=0;" edge="1" parent="1">
          <mxGeometry width="50" height="50" relative="1" as="geometry">
            <mxPoint x="400" y="499" as="sourcePoint" />
            <mxPoint x="400" y="459" as="targetPoint" />
          </mxGeometry>
        </mxCell>
        <mxCell id="kGsR6LhhUxjAlJ8nYX4r-50" value="" style="endArrow=none;html=1;rounded=0;" edge="1" parent="1">
          <mxGeometry width="50" height="50" relative="1" as="geometry">
            <mxPoint x="360" y="499" as="sourcePoint" />
            <mxPoint x="400" y="499" as="targetPoint" />
          </mxGeometry>
        </mxCell>
        <mxCell id="kGsR6LhhUxjAlJ8nYX4r-51" value="" style="endArrow=none;html=1;rounded=0;" edge="1" parent="1">
          <mxGeometry width="50" height="50" relative="1" as="geometry">
            <mxPoint x="440" y="499" as="sourcePoint" />
            <mxPoint x="440" y="459" as="targetPoint" />
          </mxGeometry>
        </mxCell>
        <mxCell id="kGsR6LhhUxjAlJ8nYX4r-52" value="" style="endArrow=none;html=1;rounded=0;" edge="1" parent="1">
          <mxGeometry width="50" height="50" relative="1" as="geometry">
            <mxPoint x="480" y="499" as="sourcePoint" />
            <mxPoint x="480" y="459" as="targetPoint" />
          </mxGeometry>
        </mxCell>
        <mxCell id="kGsR6LhhUxjAlJ8nYX4r-53" value="" style="endArrow=none;html=1;rounded=0;" edge="1" parent="1">
          <mxGeometry width="50" height="50" relative="1" as="geometry">
            <mxPoint x="519.8" y="499" as="sourcePoint" />
            <mxPoint x="519.8" y="459" as="targetPoint" />
          </mxGeometry>
        </mxCell>
        <mxCell id="kGsR6LhhUxjAlJ8nYX4r-54" value="" style="endArrow=none;html=1;rounded=0;" edge="1" parent="1">
          <mxGeometry width="50" height="50" relative="1" as="geometry">
            <mxPoint x="560" y="499" as="sourcePoint" />
            <mxPoint x="560" y="459" as="targetPoint" />
          </mxGeometry>
        </mxCell>
        <mxCell id="kGsR6LhhUxjAlJ8nYX4r-55" value="" style="endArrow=none;html=1;rounded=0;" edge="1" parent="1">
          <mxGeometry width="50" height="50" relative="1" as="geometry">
            <mxPoint x="600" y="499" as="sourcePoint" />
            <mxPoint x="600" y="459" as="targetPoint" />
          </mxGeometry>
        </mxCell>
        <mxCell id="kGsR6LhhUxjAlJ8nYX4r-56" value="" style="endArrow=none;html=1;rounded=0;" edge="1" parent="1">
          <mxGeometry width="50" height="50" relative="1" as="geometry">
            <mxPoint x="640" y="499" as="sourcePoint" />
            <mxPoint x="640" y="459" as="targetPoint" />
          </mxGeometry>
        </mxCell>
        <mxCell id="kGsR6LhhUxjAlJ8nYX4r-57" value="" style="endArrow=none;html=1;rounded=0;" edge="1" parent="1">
          <mxGeometry width="50" height="50" relative="1" as="geometry">
            <mxPoint x="640" y="459" as="sourcePoint" />
            <mxPoint x="680" y="459" as="targetPoint" />
          </mxGeometry>
        </mxCell>
        <mxCell id="kGsR6LhhUxjAlJ8nYX4r-58" value="" style="endArrow=none;html=1;rounded=0;" edge="1" parent="1">
          <mxGeometry width="50" height="50" relative="1" as="geometry">
            <mxPoint x="360" y="579" as="sourcePoint" />
            <mxPoint x="400" y="579" as="targetPoint" />
          </mxGeometry>
        </mxCell>
        <mxCell id="kGsR6LhhUxjAlJ8nYX4r-59" value="" style="endArrow=none;html=1;rounded=0;" edge="1" parent="1">
          <mxGeometry width="50" height="50" relative="1" as="geometry">
            <mxPoint x="400" y="539" as="sourcePoint" />
            <mxPoint x="480" y="539" as="targetPoint" />
          </mxGeometry>
        </mxCell>
        <mxCell id="kGsR6LhhUxjAlJ8nYX4r-60" value="" style="endArrow=none;html=1;rounded=0;" edge="1" parent="1">
          <mxGeometry width="50" height="50" relative="1" as="geometry">
            <mxPoint x="480" y="579" as="sourcePoint" />
            <mxPoint x="560" y="579" as="targetPoint" />
          </mxGeometry>
        </mxCell>
        <mxCell id="kGsR6LhhUxjAlJ8nYX4r-61" value="" style="endArrow=none;html=1;rounded=0;" edge="1" parent="1">
          <mxGeometry width="50" height="50" relative="1" as="geometry">
            <mxPoint x="400" y="579" as="sourcePoint" />
            <mxPoint x="400" y="539" as="targetPoint" />
          </mxGeometry>
        </mxCell>
        <mxCell id="kGsR6LhhUxjAlJ8nYX4r-62" value="" style="endArrow=none;html=1;rounded=0;" edge="1" parent="1">
          <mxGeometry width="50" height="50" relative="1" as="geometry">
            <mxPoint x="480" y="579" as="sourcePoint" />
            <mxPoint x="480" y="539" as="targetPoint" />
          </mxGeometry>
        </mxCell>
        <mxCell id="kGsR6LhhUxjAlJ8nYX4r-63" value="" style="endArrow=none;html=1;rounded=0;" edge="1" parent="1">
          <mxGeometry width="50" height="50" relative="1" as="geometry">
            <mxPoint x="560" y="579" as="sourcePoint" />
            <mxPoint x="560" y="539" as="targetPoint" />
          </mxGeometry>
        </mxCell>
        <mxCell id="kGsR6LhhUxjAlJ8nYX4r-64" value="" style="endArrow=none;html=1;rounded=0;" edge="1" parent="1">
          <mxGeometry width="50" height="50" relative="1" as="geometry">
            <mxPoint x="640" y="579" as="sourcePoint" />
            <mxPoint x="640" y="539" as="targetPoint" />
          </mxGeometry>
        </mxCell>
        <mxCell id="kGsR6LhhUxjAlJ8nYX4r-65" value="" style="endArrow=none;html=1;rounded=0;" edge="1" parent="1">
          <mxGeometry width="50" height="50" relative="1" as="geometry">
            <mxPoint x="560" y="539" as="sourcePoint" />
            <mxPoint x="640" y="539" as="targetPoint" />
          </mxGeometry>
        </mxCell>
        <mxCell id="kGsR6LhhUxjAlJ8nYX4r-66" value="" style="endArrow=none;html=1;rounded=0;" edge="1" parent="1">
          <mxGeometry width="50" height="50" relative="1" as="geometry">
            <mxPoint x="640" y="579" as="sourcePoint" />
            <mxPoint x="720" y="579" as="targetPoint" />
          </mxGeometry>
        </mxCell>
        <mxCell id="kGsR6LhhUxjAlJ8nYX4r-67" value="" style="endArrow=none;html=1;rounded=0;" edge="1" parent="1">
          <mxGeometry width="50" height="50" relative="1" as="geometry">
            <mxPoint x="680" y="499" as="sourcePoint" />
            <mxPoint x="720" y="499" as="targetPoint" />
          </mxGeometry>
        </mxCell>
        <mxCell id="kGsR6LhhUxjAlJ8nYX4r-68" value="" style="endArrow=none;html=1;rounded=0;" edge="1" parent="1">
          <mxGeometry width="50" height="50" relative="1" as="geometry">
            <mxPoint x="680" y="499" as="sourcePoint" />
            <mxPoint x="680" y="459" as="targetPoint" />
          </mxGeometry>
        </mxCell>
        <mxCell id="kGsR6LhhUxjAlJ8nYX4r-69" value="&lt;div&gt;ck0&lt;/div&gt;&lt;div&gt;aggressor &lt;br&gt;&lt;/div&gt;" style="text;html=1;align=center;verticalAlign=middle;whiteSpace=wrap;rounded=0;" vertex="1" parent="1">
          <mxGeometry x="310" y="459" width="60" height="30" as="geometry" />
        </mxCell>
        <mxCell id="kGsR6LhhUxjAlJ8nYX4r-70" value="&lt;b&gt;ck1 victim&lt;/b&gt;" style="text;html=1;align=center;verticalAlign=middle;whiteSpace=wrap;rounded=0;" vertex="1" parent="1">
          <mxGeometry x="310" y="539" width="60" height="30" as="geometry" />
        </mxCell>
        <mxCell id="kGsR6LhhUxjAlJ8nYX4r-71" value="" style="triangle;whiteSpace=wrap;html=1;direction=north;fillColor=#67AB9F;strokeColor=#67AB9F;" vertex="1" parent="1">
          <mxGeometry x="394" y="526" width="10" height="10" as="geometry" />
        </mxCell>
        <mxCell id="kGsR6LhhUxjAlJ8nYX4r-74" value="" style="triangle;whiteSpace=wrap;html=1;direction=north;fillColor=#67AB9F;strokeColor=#67AB9F;" vertex="1" parent="1">
          <mxGeometry x="555" y="526" width="10" height="10" as="geometry" />
        </mxCell>
        <mxCell id="kGsR6LhhUxjAlJ8nYX4r-78" value="" style="triangle;whiteSpace=wrap;html=1;direction=north;fillColor=#67AB9F;strokeColor=#67AB9F;" vertex="1" parent="1">
          <mxGeometry x="475" y="526" width="10" height="10" as="geometry" />
        </mxCell>
        <mxCell id="kGsR6LhhUxjAlJ8nYX4r-79" value="" style="triangle;whiteSpace=wrap;html=1;direction=north;fillColor=#67AB9F;strokeColor=#67AB9F;" vertex="1" parent="1">
          <mxGeometry x="635" y="526" width="10" height="10" as="geometry" />
        </mxCell>
        <mxCell id="kGsR6LhhUxjAlJ8nYX4r-80" value="" style="endArrow=none;dashed=1;html=1;dashPattern=1 3;strokeWidth=3;rounded=0;strokeColor=#CCCCCC;" edge="1" parent="1">
          <mxGeometry width="50" height="50" relative="1" as="geometry">
            <mxPoint x="290" y="424" as="sourcePoint" />
            <mxPoint x="750" y="424" as="targetPoint" />
          </mxGeometry>
        </mxCell>
      </root>
    </mxGraphModel>
  </diagram>
</mxfile>
